<?xml version="1.0" encoding="UTF-8" standalone="no"?>
<!DOCTYPE svg PUBLIC "-//W3C//DTD SVG 1.1//EN"
 "http://www.w3.org/Graphics/SVG/1.1/DTD/svg11.dtd">
<!-- Generated by graphviz version 9.0.0 (20230911.1827)
 -->
<!-- Title: G Pages: 1 -->
<svg width="402pt" height="110pt"
 viewBox="0.00 0.00 402.00 110.00" xmlns="http://www.w3.org/2000/svg" xmlns:xlink="http://www.w3.org/1999/xlink">
<g id="graph0" class="graph" transform="scale(1 1) rotate(0) translate(4 106)">
<title>G</title>
<polygon fill="white" stroke="none" points="-4,4 -4,-106 398,-106 398,4 -4,4"/>
<!-- 0 -->
<g id="node1" class="node">
<title>0</title>
<ellipse fill="none" stroke="black" cx="18" cy="-52" rx="18" ry="18"/>
<text text-anchor="middle" x="18" y="-46.95" font-family="Times,serif" font-size="14.00">0</text>
</g>
<!-- 1 -->
<g id="node2" class="node">
<title>1</title>
<ellipse fill="none" stroke="black" cx="106.5" cy="-52" rx="18" ry="18"/>
<text text-anchor="middle" x="106.5" y="-46.95" font-family="Times,serif" font-size="14.00">1</text>
</g>
<!-- 0&#45;&gt;1 -->
<g id="edge1" class="edge">
<title>0&#45;&gt;1</title>
<path fill="none" stroke="black" d="M36.09,-52C47.74,-52 63.45,-52 76.98,-52"/>
<polygon fill="black" stroke="black" points="76.64,-55.5 86.64,-52 76.64,-48.5 76.64,-55.5"/>
<text text-anchor="middle" x="62.25" y="-55.2" font-family="Times,serif" font-size="14.00">c/0</text>
<text text-anchor="middle" x="39.46" y="-38.7" font-family="Times,serif" font-size="14.00">0</text>
</g>
<!-- 2 -->
<g id="node3" class="node">
<title>2</title>
<ellipse fill="none" stroke="black" cx="195" cy="-80" rx="18" ry="18"/>
<text text-anchor="middle" x="195" y="-74.95" font-family="Times,serif" font-size="14.00">2</text>
</g>
<!-- 1&#45;&gt;2 -->
<g id="edge2" class="edge">
<title>1&#45;&gt;2</title>
<path fill="none" stroke="black" d="M124.18,-57.4C136.14,-61.27 152.54,-66.58 166.44,-71.08"/>
<polygon fill="black" stroke="black" points="165.34,-74.4 175.93,-74.15 167.5,-67.74 165.34,-74.4"/>
<text text-anchor="middle" x="150.75" y="-69.2" font-family="Times,serif" font-size="14.00">a</text>
<text text-anchor="middle" x="127.55" y="-44.1" font-family="Times,serif" font-size="14.00">0</text>
</g>
<!-- 4 -->
<g id="node5" class="node">
<title>4</title>
<ellipse fill="none" stroke="black" cx="195" cy="-25" rx="18" ry="18"/>
<text text-anchor="middle" x="195" y="-19.95" font-family="Times,serif" font-size="14.00">4</text>
</g>
<!-- 1&#45;&gt;4 -->
<g id="edge3" class="edge">
<title>1&#45;&gt;4</title>
<path fill="none" stroke="black" d="M123.63,-45.19C130.82,-42.29 139.44,-39.01 147.38,-36.5 153.44,-34.58 160.02,-32.79 166.28,-31.21"/>
<polygon fill="black" stroke="black" points="166.64,-34.73 175.55,-28.99 165.01,-27.92 166.64,-34.73"/>
<text text-anchor="middle" x="150.75" y="-40.2" font-family="Times,serif" font-size="14.00">o</text>
<text text-anchor="middle" x="127" y="-31.89" font-family="Times,serif" font-size="14.00">1</text>
</g>
<!-- 3 -->
<g id="node4" class="node">
<title>3</title>
<ellipse fill="none" stroke="black" cx="283.5" cy="-80" rx="18" ry="18"/>
<ellipse fill="none" stroke="black" cx="283.5" cy="-80" rx="22" ry="22"/>
<text text-anchor="middle" x="283.5" y="-74.95" font-family="Times,serif" font-size="14.00">3</text>
</g>
<!-- 2&#45;&gt;3 -->
<g id="edge4" class="edge">
<title>2&#45;&gt;3</title>
<path fill="none" stroke="black" d="M213.09,-80C223.54,-80 237.25,-80 249.72,-80"/>
<polygon fill="black" stroke="black" points="249.64,-83.5 259.64,-80 249.64,-76.5 249.64,-83.5"/>
<text text-anchor="middle" x="239.25" y="-83.2" font-family="Times,serif" font-size="14.00">t</text>
<text text-anchor="middle" x="216.46" y="-66.7" font-family="Times,serif" font-size="14.00">0</text>
</g>
<!-- 5 -->
<g id="node6" class="node">
<title>5</title>
<ellipse fill="none" stroke="black" cx="283.5" cy="-22" rx="18" ry="18"/>
<text text-anchor="middle" x="283.5" y="-16.95" font-family="Times,serif" font-size="14.00">5</text>
</g>
<!-- 4&#45;&gt;5 -->
<g id="edge5" class="edge">
<title>4&#45;&gt;5</title>
<path fill="none" stroke="black" d="M213.09,-24.41C224.74,-24 240.45,-23.46 253.98,-22.99"/>
<polygon fill="black" stroke="black" points="253.76,-26.5 263.64,-22.65 253.52,-19.5 253.76,-26.5"/>
<text text-anchor="middle" x="239.25" y="-27.2" font-family="Times,serif" font-size="14.00">d</text>
<text text-anchor="middle" x="216.46" y="-11.11" font-family="Times,serif" font-size="14.00">0</text>
</g>
<!-- 6 -->
<g id="node7" class="node">
<title>6</title>
<ellipse fill="none" stroke="black" cx="372" cy="-22" rx="18" ry="18"/>
<ellipse fill="none" stroke="black" cx="372" cy="-22" rx="22" ry="22"/>
<text text-anchor="middle" x="372" y="-16.95" font-family="Times,serif" font-size="14.00">6</text>
</g>
<!-- 5&#45;&gt;6 -->
<g id="edge6" class="edge">
<title>5&#45;&gt;6</title>
<path fill="none" stroke="black" d="M301.59,-22C312.04,-22 325.75,-22 338.22,-22"/>
<polygon fill="black" stroke="black" points="338.14,-25.5 348.14,-22 338.14,-18.5 338.14,-25.5"/>
<text text-anchor="middle" x="327.75" y="-25.2" font-family="Times,serif" font-size="14.00">e</text>
<text text-anchor="middle" x="304.96" y="-8.7" font-family="Times,serif" font-size="14.00">0</text>
</g>
</g>
</svg>
